<svg width="800" height="533" viewBox="0 0 800 533" fill="none" xmlns="http://www.w3.org/2000/svg">
  <defs>
    <linearGradient id="bg" x1="98" y1="68" x2="704" y2="467" gradientUnits="userSpaceOnUse">
      <stop stop-color="#F6F8FB"/>
      <stop offset="1" stop-color="#EAF1F4"/>
    </linearGradient>
    <linearGradient id="panel" x1="153" y1="108" x2="647" y2="408" gradientUnits="userSpaceOnUse">
      <stop stop-color="#FFFFFF"/>
      <stop offset="1" stop-color="#F9FBFC"/>
    </linearGradient>
    <linearGradient id="ink" x1="489" y1="153" x2="615" y2="357" gradientUnits="userSpaceOnUse">
      <stop stop-color="#1F3950"/>
      <stop offset="1" stop-color="#2E6873"/>
    </linearGradient>
    <filter id="shadow" x="106" y="83" width="588" height="376" filterUnits="userSpaceOnUse" color-interpolation-filters="sRGB">
      <feDropShadow dx="0" dy="18" stdDeviation="22" flood-color="#183447" flood-opacity="0.13"/>
    </filter>
  </defs>

  <rect width="800" height="533" rx="24" fill="url(#bg)"/>
  <circle cx="163" cy="118" r="103" fill="#DCE8EF" fill-opacity="0.48"/>
  <circle cx="652" cy="420" r="120" fill="#D9ECE8" fill-opacity="0.46"/>

  <g filter="url(#shadow)">
    <rect x="128" y="105" width="544" height="324" rx="28" fill="url(#panel)"/>
  </g>

  <rect x="165" y="144" width="198" height="11" rx="5.5" fill="#21394D" fill-opacity="0.16"/>
  <rect x="376" y="144" width="98" height="11" rx="5.5" fill="#21394D" fill-opacity="0.08"/>
  <rect x="165" y="177" width="154" height="10" rx="5" fill="#21394D" fill-opacity="0.1"/>
  <rect x="327" y="177" width="113" height="10" rx="5" fill="#21394D" fill-opacity="0.08"/>
  <rect x="165" y="210" width="104" height="32" rx="16" fill="#8FD2C2" fill-opacity="0.28"/>
  <text x="186" y="231" fill="#24544D" fill-opacity="0.92" font-size="16" font-family="ui-monospace, SFMono-Regular, Menlo, Monaco, Consolas, monospace">Alice Roe</text>
  <rect x="281" y="210" width="92" height="32" rx="16" fill="#F0C987" fill-opacity="0.34"/>
  <text x="302" y="231" fill="#7A5826" fill-opacity="0.92" font-size="16" font-family="ui-monospace, SFMono-Regular, Menlo, Monaco, Consolas, monospace">$12,400</text>
  <rect x="165" y="256" width="98" height="32" rx="16" fill="#A7D8F3" fill-opacity="0.34"/>
  <text x="186" y="277" fill="#2A5876" fill-opacity="0.92" font-size="16" font-family="ui-monospace, SFMono-Regular, Menlo, Monaco, Consolas, monospace">02/14/26</text>
  <rect x="276" y="256" width="165" height="10" rx="5" fill="#21394D" fill-opacity="0.09"/>
  <rect x="276" y="278" width="132" height="10" rx="5" fill="#21394D" fill-opacity="0.07"/>
  <rect x="165" y="325" width="205" height="10" rx="5" fill="#21394D" fill-opacity="0.11"/>
  <rect x="378" y="325" width="94" height="10" rx="5" fill="#21394D" fill-opacity="0.07"/>

  <rect x="502" y="145" width="126" height="208" rx="28" fill="url(#ink)"/>
  <rect x="528" y="168" width="74" height="162" rx="20" fill="#F4FAFB" fill-opacity="0.09"/>
  <path d="M529 309C556 292 585 281 617 276" stroke="#F8FBFC" stroke-width="8" stroke-linecap="round"/>
  <path d="M523 329C555 312 585 301 622 294" stroke="#F8FBFC" stroke-opacity="0.5" stroke-width="4" stroke-linecap="round"/>
  <circle cx="566" cy="209" r="26" fill="#F8FBFC" fill-opacity="0.11"/>
  <path d="M557 209L564 216L577 202" stroke="#F8FBFC" stroke-width="6" stroke-linecap="round" stroke-linejoin="round"/>

  <path d="M474 209H500" stroke="#8FD2C2" stroke-width="3" stroke-linecap="round" stroke-dasharray="6 8"/>
  <path d="M445 226H500" stroke="#F0C987" stroke-width="3" stroke-linecap="round" stroke-dasharray="6 8"/>
  <path d="M449 272H500" stroke="#A7D8F3" stroke-width="3" stroke-linecap="round" stroke-dasharray="6 8"/>
</svg>
